<svg width="33" height="37" viewBox="0 0 33 37" fill="none" xmlns="http://www.w3.org/2000/svg">
<rect y="7" width="33" height="28" rx="14" fill="url(#paint0_linear_394_829)"/>
<g filter="url(#filter0_d_394_829)">
<path d="M17.1005 0.0889454C16.8947 0.00319973 16.6649 -0.021334 16.4433 0.0187553C16.2216 0.0588447 16.019 0.161565 15.8636 0.312635C15.7124 0.457217 15.6027 0.634221 15.5444 0.827657C15.486 1.02109 15.4809 1.22487 15.5295 1.42058C15.6909 2.08114 15.7756 2.77173 15.7756 3.47733C15.7756 5.0927 15.334 6.22466 14.5729 7.16296C13.8005 8.11627 12.6826 8.89243 11.2697 9.76767C11.2474 9.78128 11.2267 9.79687 11.2078 9.81421L11.0366 9.97335C9.24998 11.0352 7.83567 12.5514 6.96487 14.3383C6.09406 16.1253 5.80408 18.1064 6.13002 20.042C6.45596 21.9776 7.38384 23.7847 8.80139 25.2447C10.2189 26.7046 12.0654 27.7547 14.1173 28.2681C16.1692 28.7814 18.3386 28.7359 20.3631 28.137C22.3875 27.5381 24.1801 26.4116 25.524 24.8938C26.8679 23.3759 27.7056 21.5317 27.9355 19.5845C28.1654 17.6372 27.7778 15.6703 26.8196 13.9217C26.7894 13.8665 26.7448 13.8191 26.6899 13.7836C26.635 13.7481 26.5715 13.7257 26.5049 13.7183C26.4383 13.7108 26.3708 13.7187 26.3082 13.7411C26.2457 13.7635 26.1902 13.7997 26.1466 13.8466L25.8076 14.2084C24.3768 15.7488 23.2214 16.9933 20.8535 17.5488C20.7525 17.5713 20.6906 17.5548 20.6466 17.5293C20.5766 17.4836 20.5246 17.4183 20.4983 17.3431C20.4557 17.2391 20.4445 17.1265 20.4657 17.0171C20.487 16.9077 20.5399 16.8056 20.6189 16.7216C21.8851 15.456 22.7846 13.7385 23.1057 11.296C23.7086 6.72008 21.4516 1.84694 17.1005 0.0889454Z" fill="url(#paint1_linear_394_829)" shape-rendering="crispEdges"/>
</g>
<defs>
<filter id="filter0_d_394_829" x="2" y="0" width="30" height="36.6221" filterUnits="userSpaceOnUse" color-interpolation-filters="sRGB">
<feFlood flood-opacity="0" result="BackgroundImageFix"/>
<feColorMatrix in="SourceAlpha" type="matrix" values="0 0 0 0 0 0 0 0 0 0 0 0 0 0 0 0 0 0 127 0" result="hardAlpha"/>
<feOffset dy="4"/>
<feGaussianBlur stdDeviation="2"/>
<feComposite in2="hardAlpha" operator="out"/>
<feColorMatrix type="matrix" values="0 0 0 0 0 0 0 0 0 0 0 0 0 0 0 0 0 0 1 0"/>
<feBlend mode="normal" in2="BackgroundImageFix" result="effect1_dropShadow_394_829"/>
<feBlend mode="normal" in="SourceGraphic" in2="effect1_dropShadow_394_829" result="shape"/>
</filter>
<linearGradient id="paint0_linear_394_829" x1="0" y1="21" x2="33" y2="21" gradientUnits="userSpaceOnUse">
<stop stop-color="#30CFD0"/>
<stop offset="1" stop-color="#330867"/>
</linearGradient>
<linearGradient id="paint1_linear_394_829" x1="17" y1="0" x2="17" y2="28.6222" gradientUnits="userSpaceOnUse">
<stop stop-color="white"/>
<stop offset="1" stop-color="white" stop-opacity="0.46"/>
</linearGradient>
</defs>
</svg>
